# xmcd
#
# Track frame offsets:
# 182
# 14475
# 26007
# 39225
# 51675
# 65362
# 77957
# 90192
# 102390
# 117987
# 129870
# 141127
# 154927
# 168675
# 177782
# 199292
# 217925
# 229067
# 240600
# 250567
# 260300
#
# Disc length: 3589 seconds
#
#
# Revision: 1
# Processed by: cddbd v1.5.1PL2 Copyright (c) Steve Scherf et al.
# Submitted via: FreeRIP 2.945 
#
DISCID=1c0e0315
DTITLE=Bobby Bare - All American Boy
DYEAR=1993
DGENRE=Country
TTITLE0=All American Boy
TTITLE1=Shame On Me
TTITLE2=Detroit City
TTITLE3=500 Miles Away From Home
TTITLE4=Miller's Cave
TTITLE5=Four Strong Winds
TTITLE6=Streets Of Baltimore
TTITLE7=The Game Of Triangles
TTITLE8=Margie's At The Lincoln Park Inn
TTITLE9=Come Sundown
TTITLE10=Please Don't Tell Me How The Story Ends
TTITLE11=Ride Me Down Easy
TTITLE12=Marie Laveau
TTITLE13=Drop Kick Me, Jesus
TTITLE14=Numbers
TTITLE15=Tequila Sheila
TTITLE16=He Was A Friend Of Mine
TTITLE17=When I'm Gone
TTITLE18=To Whom It May Concern
TTITLE19=I Don't Believe I'll Fall In Love Today
TTITLE20=Bye Bye Love
EXTD=Intermusic
EXTT0=
EXTT1=
EXTT2=
EXTT3=
EXTT4=
EXTT5=
EXTT6=
EXTT7=
EXTT8=
EXTT9=
EXTT10=
EXTT11=
EXTT12=
EXTT13=
EXTT14=
EXTT15=
EXTT16=
EXTT17=
EXTT18=
EXTT19=
EXTT20=
PLAYORDER=
